<svg version="1.1" xmlns="http://www.w3.org/2000/svg" style="display: block;" viewBox="0 0 2048 2048" width="1024"
     height="1024" preserveAspectRatio="none">
    <defs>
        <linearGradient id="Gradient1" gradientUnits="userSpaceOnUse" x1="1021.88" y1="2040.09" x2="1026.1"
                        y2="6.91933">
            <stop class="stop0" offset="0" stop-opacity="1" stop-color="rgb(255,48,0)"/>
            <stop class="stop1" offset="1" stop-opacity="1" stop-color="rgb(255,120,0)"/>
        </linearGradient>
    </defs>
    <path transform="translate(0,0)" fill="url(#Gradient1)"
          d="M 986.962 5.5554 C 988.347 5.42083 989.052 5.32852 990.463 5.28753 C 1032.41 4.06921 1074.6 5.36785 1116.35 9.09833 C 1336.19 28.4113 1543.66 119.156 1707.07 267.469 C 1909.05 449.197 2029.74 704.318 2042.14 975.737 C 2055.59 1248.61 1958.72 1515.43 1773.34 1716.11 C 1732.86 1759.91 1688.55 1800.01 1640.93 1835.92 C 1468.1 1967.47 1277.02 2032 1061.24 2042.56 C 1053.91 2043.99 1038.06 2043 1029.74 2043.02 C 1002.37 2043.34 974.986 2042.44 947.687 2040.33 C 732.585 2024.45 528.116 1940.53 363.876 1800.72 C 157.461 1625.99 29.3829 1376.05 8.10217 1106.44 C -14.4574 834.874 72.8254 565.599 250.41 358.903 C 401.639 182.482 608.961 63.4617 837.568 21.8255 C 894.458 11.4031 930.836 9.77445 986.962 5.5554 z"/>
    <path transform="translate(0,0)" fill="rgb(254,254,254)"
          d="M 1191.6 531.423 C 1192.09 531.37 1192.58 531.317 1193.07 531.263 C 1392.03 518.834 1557.8 669.621 1575.35 861.342 C 1587.71 857.782 1597.75 853.607 1610.75 850.476 C 1649.34 841.369 1693.49 844.47 1730.37 859.672 C 1901.71 930.286 1905.38 1164.66 1735.53 1240.04 C 1685.08 1261.06 1629.55 1255.98 1575.87 1255.97 L 1389.23 1255.97 L 1184.77 1255.96 L 1120.24 1256.04 C 1104.89 1256.06 1082.16 1259.3 1070.44 1249.6 C 1066.01 1245.94 1063.26 1240.32 1063.12 1234.62 C 1062.49 1210.49 1062.81 1186.33 1062.6 1162.19 C 1062.12 1103.96 1061.97 1045.72 1062.14 987.478 L 1062.71 721.02 C 1062.75 702.817 1060.54 570.852 1066.57 565.208 C 1087.88 545.252 1160.1 533.48 1191.6 531.423 z"/>
    <path transform="translate(0,0)" fill="rgb(254,254,254)"
          d="M 1014.27 579.172 C 1024.46 578.327 1037.51 581.1 1040.27 590.769 C 1046.2 611.495 1043.75 651.965 1044.33 672.738 C 1046.52 735.955 1048.08 799.193 1049.01 862.441 C 1050.25 931.634 1053.28 1001.19 1053.07 1070.25 C 1053.01 1089.83 1050.19 1117.81 1049.03 1138.46 C 1047.83 1160.29 1046.47 1182.11 1044.95 1203.92 C 1044.21 1215.49 1044.52 1229.54 1041.52 1240.58 C 1039.57 1247.76 1033.47 1251.25 1027.34 1254.56 C 1013.29 1257.16 999.434 1250.69 998.561 1235.67 C 995.366 1180.73 990.225 1124.66 988.777 1069.73 C 987.791 1032.31 989.647 992.378 990.518 954.966 L 994.801 764.93 L 996.965 654.194 C 997.311 637.629 996.94 605.627 1000.02 590.995 C 1004.87 584.614 1007.24 582.971 1014.27 579.172 z"/>
    <path transform="translate(0,0)" fill="rgb(254,254,254)"
          d="M 948.962 618.037 C 965.886 618.363 971.408 631.654 971.754 646.238 C 972.235 666.534 972.68 686.817 973.099 707.116 L 975.631 828.188 L 979.103 991.974 C 979.496 1015.97 980.426 1040.04 980.162 1064.03 C 979.913 1086.67 973.612 1235.53 968.98 1245.16 C 965.967 1251.42 958.705 1254.58 952.585 1256.85 C 949.957 1256.89 947.121 1256.36 944.619 1255.57 C 938.569 1253.67 932.767 1249.05 930.317 1243.09 C 927.941 1237.31 921.336 1086.47 921.165 1065.62 C 920.573 993.26 924.012 920.67 925.189 848.302 L 927.368 714.811 C 927.77 691.221 928.112 667.615 928.824 644.035 C 929.313 627.837 934.633 622.916 948.962 618.037 z"/>
    <path transform="translate(0,0)" fill="rgb(254,254,254)"
          d="M 873.749 688.15 C 882.421 687.623 890.3 688.502 895.727 696.371 C 897.771 699.334 899.262 702.788 899.473 706.436 C 900.496 724.05 900.682 741.742 900.999 759.385 C 901.571 786.575 902.292 813.761 903.162 840.943 L 907.088 974.295 C 908.051 1005.16 910.124 1038.36 909.226 1069.14 C 907.952 1112.84 902.948 1157.05 901.493 1200.81 C 901.014 1215.2 900.785 1230.65 898.248 1244.8 C 893.77 1250.56 891.545 1252.26 885.193 1255.78 C 869.572 1258.61 860.501 1249.07 859.939 1233.92 C 857.43 1166.34 849.757 1098.6 851.594 1030.98 C 852.108 1012.04 852.499 992.954 852.976 974 L 857.68 801.159 C 858.287 780.632 858.751 760.1 859.072 739.566 C 859.295 728.097 859.09 713.318 861.021 702.066 C 862.141 695.534 868.29 691.184 873.749 688.15 z"/>
    <path transform="translate(0,0)" fill="rgb(254,254,254)"
          d="M 804.318 676.148 C 818.817 673.792 826.948 681.718 827.696 695.971 C 830.019 740.228 830.095 784.659 831.86 828.918 C 833.915 879.517 835.472 930.134 836.531 980.763 C 837.962 1029.69 840.301 1075.03 835.478 1124 C 831.667 1162.7 831.28 1202.49 827.198 1241.16 C 826.44 1248.33 821.19 1251.3 815.846 1254.9 C 806.848 1257.65 799.805 1254.76 793.806 1246.99 C 791.281 1243.72 791.046 1234.54 790.752 1230.22 C 788.832 1201.17 787.342 1172.09 786.048 1143.01 C 784.775 1114.4 781.597 1086.09 781.773 1057.44 C 782.006 1019.61 783.725 981.888 784.816 944.083 L 788.98 776.625 C 789.559 759.872 790.049 743.117 790.449 726.359 C 790.66 715.035 790.26 700.968 791.962 689.865 C 792.958 683.37 799.177 679.507 804.318 676.148 z"/>
    <path transform="translate(0,0)" fill="rgb(254,254,254)"
          d="M 736.228 667.077 C 764.388 665.772 757.344 701.911 758.055 720.954 L 762.442 860.737 L 766.121 980.972 C 766.511 991.453 766.631 1002.98 767.481 1013.36 C 771.454 1061.86 765.716 1108.63 762.662 1157.02 L 758.851 1215.75 C 757.678 1232.59 760.65 1246 745.167 1255.56 C 731.212 1258 723.051 1248.83 722.664 1235.71 C 721.039 1180.54 714.878 1125.03 712.857 1070.01 C 711.591 1035.52 714.432 996.886 715.507 962.265 L 720.567 789.156 C 721.606 753.606 720.574 715.759 723.934 680.226 C 724.527 673.956 731.249 669.94 736.228 667.077 z"/>
    <path transform="translate(0,0)" fill="rgb(254,254,254)"
          d="M 668.489 681.039 C 675.329 680.562 680.042 682.844 684.059 688.601 C 686.302 691.817 686.881 697.866 687.044 701.77 C 687.914 722.55 688.22 743.373 688.839 764.173 L 692.804 871.929 C 694.411 911.23 695.801 950.54 696.974 989.856 C 697.851 1013.69 699.179 1037.82 699.341 1061.65 C 699.444 1076.75 697.616 1093.79 696.502 1109.01 C 694.501 1136.79 692.347 1164.56 690.041 1192.31 C 688.752 1208.94 688.265 1228.31 685.859 1244.83 C 685.147 1249.72 679.013 1253.33 674.959 1255.55 C 664.757 1256.31 661.977 1253.31 656.198 1245.28 C 651.233 1194.56 650.29 1141.97 645.852 1091.05 C 643.088 1059.34 645.427 1027.21 646.471 995.365 L 650.581 865.175 L 654.267 749.862 C 654.79 732.448 654.195 707.918 657.001 690.75 C 657.699 686.474 664.875 682.885 668.489 681.039 z"/>
    <path transform="translate(0,0)" fill="rgb(254,254,254)"
          d="M 598.127 712.049 C 607.107 711.89 609.251 713.917 614.904 720.655 C 617.221 739.257 617.46 768.341 618.197 788.005 L 622.28 884.293 L 627.104 1006.63 C 627.901 1025.22 629.923 1045.16 629.596 1063.65 C 628.575 1089.21 625.475 1114.66 623.67 1140.19 C 621.248 1174.45 618.89 1208.83 615.508 1243 C 614.762 1250.54 611.998 1252.17 606.142 1256.57 C 594.728 1258.45 588.745 1252.21 587.593 1240.93 C 582.881 1194.78 582.464 1147.41 577.793 1101.35 C 574.028 1064.24 576.557 1032.82 577.858 995.744 L 583.175 846.761 L 585.989 764.6 C 586.491 751.139 586.789 736.486 588.315 723.118 C 588.894 718.045 594.139 714.682 598.127 712.049 z"/>
    <path transform="translate(0,0)" fill="rgb(254,254,254)"
          d="M 533.288 774.828 C 542.913 776.999 547.182 781.669 547.712 791.437 C 549.075 816.516 550.387 841.599 551.695 866.681 L 557.552 976.796 C 558.865 1006.09 561.464 1036.46 562.021 1065.7 C 562.204 1075.3 559.643 1096.17 558.808 1106.39 C 556.941 1132.09 554.847 1157.76 552.527 1183.42 C 550.726 1203.63 549.664 1224.83 547.119 1244.93 C 546.469 1250.06 541.109 1253.31 537.063 1255.95 C 524.692 1256.99 522.465 1245.85 521.682 1236.12 C 517.361 1182.42 514.214 1128.63 509.622 1074.95 C 508.149 1057.73 510.23 1038.08 511.193 1020.67 L 514.605 951.609 L 519.596 840.614 C 520.369 823.626 520.592 800.183 523.703 783.482 C 524.432 779.564 529.934 776.619 533.288 774.828 z"/>
    <path transform="translate(0,0)" fill="rgb(254,254,254)"
          d="M 462.272 884.194 C 467.751 883.867 470.402 883.481 474.912 886.416 C 482.76 896.747 490.839 1042.05 494.071 1064.28 C 494.51 1067.3 492.18 1093.6 491.69 1099.4 L 484.425 1176.65 C 482.496 1198.6 481.142 1223.86 478.218 1245.86 C 477.965 1247.75 474.269 1251.51 472.773 1253.07 C 461.058 1256.98 456.932 1249.34 456.018 1238.97 C 451.721 1190.24 448.988 1141.38 444.283 1092.67 C 443.863 1084.97 442.567 1076.63 442.692 1068.94 C 443.156 1040.45 446.966 1011.34 449.207 982.959 L 453.684 924.566 C 454.631 913.202 454.417 892.434 462.272 884.194 z"/>
    <path transform="translate(0,0)" fill="rgb(254,254,254)"
          d="M 396.739 871.818 C 411.367 872.23 410.29 879.362 411.47 892.485 C 416.616 949.703 422.306 1006.96 426.952 1064.2 C 427.309 1068.61 426.197 1074.49 426.129 1078.97 C 424.002 1100.42 421.621 1122.04 419.705 1143.49 C 417.88 1165.36 415.885 1187.22 413.72 1209.06 C 412.662 1219.85 412.484 1242.94 405.221 1250.16 C 393.411 1254.64 390.932 1243.21 390.209 1233.92 C 385.945 1179.06 380.573 1124.16 376.718 1069.3 C 375.718 1055.07 378.335 1035.51 379.594 1021.16 L 384.157 965.227 L 388.346 912.733 C 389.275 901.119 388.837 880.072 396.739 871.818 z"/>
    <path transform="translate(0,0)" fill="rgb(254,254,254)"
          d="M 331.057 877.747 C 336.035 877.826 341.813 879.253 342.475 885.317 C 348.105 942 354.44 998.981 359.764 1055.68 C 361.742 1076.75 354.706 1121.61 352.416 1144.08 L 346.004 1205.7 C 344.841 1216.38 344.691 1236.18 338.154 1243.87 C 334.243 1244.7 334.43 1244.79 330.643 1243.72 C 327.048 1240.45 326.36 1236.5 325.86 1231.7 C 322.647 1202.77 320.017 1173.65 317.803 1144.62 C 316.048 1114.16 309.236 1081.67 311.539 1051.23 C 313.291 1028.1 315.765 1004.67 317.713 981.511 L 322.887 921.313 C 323.957 909.232 324.147 887.146 331.057 877.747 z"/>
    <path transform="translate(0,0)" fill="rgb(254,254,254)"
          d="M 268.276 906.567 C 271.112 907.727 274.324 909.402 274.886 912.665 C 278.314 932.574 280.424 953.467 282.958 973.499 L 290.08 1029.79 C 291.469 1040.61 293.596 1053.75 293.915 1064.68 C 293.721 1072.85 292.336 1081.35 291.303 1089.44 C 286.266 1128.89 281.103 1168.32 275.912 1207.75 C 275.381 1211.78 273.985 1215 272.062 1218.52 C 269.531 1218.23 265.432 1217.85 263.83 1215.56 C 260.068 1210.19 245.532 1075.95 245.956 1061.87 C 246.666 1038.32 250.936 1014 253.409 990.54 C 255.887 967.024 257.421 935.814 262.463 913.103 C 263.361 909.059 265.033 908.619 268.276 906.567 z"/>
    <path transform="translate(0,0)" fill="rgb(254,254,254)"
          d="M 203.466 964.805 C 204.383 964.861 207.385 965.031 207.978 965.27 C 209.252 965.783 211.219 966.245 211.585 967.611 C 214.795 979.597 228.33 1058.65 227.555 1065.84 C 225.865 1081.51 214.948 1151.31 211.111 1161.38 C 208.011 1162.64 208.24 1162.57 204.896 1162.23 C 201.104 1159.71 200.228 1156.7 199.728 1152.05 C 196.6 1123.04 189.185 1090.63 188.954 1061.69 C 190.578 1040.61 193.814 1019.53 196.471 998.543 C 197.58 989.789 198.929 971.46 203.466 964.805 z"/>
</svg>