<?xml version="1.0" encoding="UTF-8"?>
<!DOCTYPE svg PUBLIC "-//W3C//DTD SVG 1.1//EN" "http://www.w3.org/Graphics/SVG/1.1/DTD/svg11.dtd">
<svg
  xmlns="http://www.w3.org/2000/svg"
  version="1.1"
  width="512px"
  height="512px"
  style="shape-rendering: geometricPrecision; text-rendering: geometricPrecision; image-rendering: optimizeQuality; fill-rule: evenodd; clip-rule: evenodd"
>
  <g>
    <path
      style="opacity: 0.977"
      fill="#5c5648"
      d="M 233.5,-0.5 C 248.167,-0.5 262.833,-0.5 277.5,-0.5C 284.441,0.239847 291.108,2.23985 297.5,5.5C 299.167,22.1717 301,38.8384 303,55.5C 304.4,58.9024 306.567,61.7357 309.5,64C 326.446,69.9729 342.779,77.3062 358.5,86C 371.729,94.5615 384.396,103.895 396.5,114C 405.569,114.536 413.903,112.202 421.5,107C 432.745,103.867 442.245,106.7 450,115.5C 459.566,129.416 467.9,144.083 475,159.5C 476.914,168.842 474.914,177.176 469,184.5C 464.5,187.667 460,190.833 455.5,194C 452.567,196.264 450.4,199.098 449,202.5C 451.555,219.343 453.055,236.343 453.5,253.5C 453.23,269.989 451.564,286.322 448.5,302.5C 448.411,306.067 449.245,309.4 451,312.5C 458.32,318.155 465.32,324.155 472,330.5C 475.248,336.452 476.248,342.785 475,349.5C 467.775,368.456 457.609,385.623 444.5,401C 437.294,405.594 429.628,406.594 421.5,404C 413.818,398.972 405.484,396.639 396.5,397C 388.547,402.618 380.88,408.618 373.5,415C 366.833,419.333 360.167,423.667 353.5,428C 338.49,435.674 323.157,442.507 307.5,448.5C 304.451,451.133 302.617,454.466 302,458.5C 302.448,467.288 300.781,475.622 297,483.5C 292.138,490.015 285.638,493.515 277.5,494C 257.5,494.667 237.5,494.667 217.5,494C 211.472,493.201 205.472,492.368 199.5,491.5C 197.774,489.058 196.274,486.391 195,483.5C 193.176,475.928 192.01,468.262 191.5,460.5C 160.174,451.295 132.674,435.629 109,413.5C 86.0622,427.6 65.3955,424.933 47,405.5C 36.8002,391.108 28.1336,375.774 21,359.5C 15.8736,343.894 18.2069,329.56 28,316.5C 33.5887,311.3 39.422,306.467 45.5,302C 38.8333,271 38.8333,240 45.5,209C 41.5109,205.36 37.1776,202.027 32.5,199C 20.819,187.957 16.319,174.457 19,158.5C 26.9873,134.871 39.4873,114.038 56.5,96C 74.2602,85.7333 91.7602,86.2333 109,97.5C 117.405,89.0871 126.905,82.2538 137.5,77C 156.03,73.8605 163.197,81.3605 159,99.5C 157.859,101.609 156.359,103.442 154.5,105C 146.251,110.578 138.584,116.912 131.5,124C 122.916,130.562 113.249,132.896 102.5,131C 95.674,128.725 89.0073,126.058 82.5,123C 80.3646,122.365 78.3646,122.699 76.5,124C 67.2818,136.258 59.4485,149.424 53,163.5C 52.3333,165.833 52.3333,168.167 53,170.5C 60.4127,176.037 67.4127,182.037 74,188.5C 79.0495,196.496 80.7162,205.162 79,214.5C 73,241.833 73,269.167 79,296.5C 81.3087,310.709 76.8087,322.209 65.5,331C 61.0493,333.783 56.8826,336.95 53,340.5C 52.8333,341.667 52.6667,342.833 52.5,344C 58.4227,359.514 66.4227,373.847 76.5,387C 78.3646,388.301 80.3646,388.635 82.5,388C 89.0185,384.939 95.6852,382.272 102.5,380C 110.478,378.783 118.144,379.783 125.5,383C 143.643,399.578 163.976,412.912 186.5,423C 196.394,425.848 205.728,429.848 214.5,435C 223.791,445.295 227.958,457.462 227,471.5C 227.785,473.286 228.951,474.786 230.5,476C 247.167,478 263.833,478 280.5,476C 281.333,475.167 282.167,474.333 283,473.5C 284.477,465.554 285.81,457.554 287,449.5C 290.042,440.46 295.876,433.96 304.5,430C 333.026,421.578 358.026,407.244 379.5,387C 388.084,380.438 397.751,378.104 408.5,380C 415.315,382.272 421.981,384.939 428.5,388C 430.635,388.635 432.635,388.301 434.5,387C 444.577,373.847 452.577,359.514 458.5,344C 458.333,342.833 458.167,341.667 458,340.5C 450.587,334.963 443.587,328.963 437,322.5C 433.146,316.749 431.312,310.415 431.5,303.5C 434.479,287.644 436.146,271.644 436.5,255.5C 436.451,241.672 434.951,228.006 432,214.5C 429.987,203.215 432.654,193.215 440,184.5C 446.181,180.075 452.181,175.408 458,170.5C 458.667,168.167 458.667,165.833 458,163.5C 451.677,150.179 444.344,137.512 436,125.5C 434.53,123.848 432.697,122.848 430.5,122.5C 423.283,125.608 415.949,128.441 408.5,131C 400.522,132.217 392.856,131.217 385.5,128C 367.357,111.422 347.024,98.0885 324.5,88C 317.167,85.3333 309.833,82.6667 302.5,80C 294.877,75.9368 289.71,69.7701 287,61.5C 285.636,54.2242 284.636,46.8909 284,39.5C 283.215,37.714 282.049,36.214 280.5,35C 263.833,33 247.167,33 230.5,35C 228.951,36.214 227.785,37.714 227,39.5C 225.667,50.1673 224.333,60.834 223,71.5C 217.984,83.5098 209.484,86.6765 197.5,81C 194.894,79.0616 193.061,76.5616 192,73.5C 191.099,58.021 192.099,42.6877 195,27.5C 202.28,10.4508 215.113,1.11746 233.5,-0.5 Z"
    />
  </g>
  <g>
    <path
      style="opacity: 0.979"
      fill="#e09235"
      d="M 297.5,5.5 C 313.046,16.261 320.379,31.261 319.5,50.5C 350.826,59.7046 378.326,75.3713 402,97.5C 424.947,83.4009 445.613,86.0675 464,105.5C 474.805,120.772 483.805,137.105 491,154.5C 494.986,169.215 492.319,182.548 483,194.5C 477.411,199.7 471.578,204.533 465.5,209C 472.148,239.998 472.148,270.998 465.5,302C 469.489,305.64 473.822,308.973 478.5,312C 493.427,327.276 496.594,344.776 488,364.5C 479.581,383.234 468.414,400.068 454.5,415C 436.731,425.266 419.231,424.766 402,413.5C 378.153,435.457 350.653,451.457 319.5,461.5C 319.781,475.395 315.614,487.729 307,498.5C 298.591,506.293 288.758,510.626 277.5,511.5C 262.833,511.5 248.167,511.5 233.5,511.5C 218.758,510.468 207.425,503.801 199.5,491.5C 205.472,492.368 211.472,493.201 217.5,494C 237.5,494.667 257.5,494.667 277.5,494C 285.638,493.515 292.138,490.015 297,483.5C 300.781,475.622 302.448,467.288 302,458.5C 302.617,454.466 304.451,451.133 307.5,448.5C 323.157,442.507 338.49,435.674 353.5,428C 360.167,423.667 366.833,419.333 373.5,415C 380.88,408.618 388.547,402.618 396.5,397C 405.484,396.639 413.818,398.972 421.5,404C 429.628,406.594 437.294,405.594 444.5,401C 457.609,385.623 467.775,368.456 475,349.5C 476.248,342.785 475.248,336.452 472,330.5C 465.32,324.155 458.32,318.155 451,312.5C 449.245,309.4 448.411,306.067 448.5,302.5C 451.564,286.322 453.23,269.989 453.5,253.5C 453.055,236.343 451.555,219.343 449,202.5C 450.4,199.098 452.567,196.264 455.5,194C 460,190.833 464.5,187.667 469,184.5C 474.914,177.176 476.914,168.842 475,159.5C 467.9,144.083 459.566,129.416 450,115.5C 442.245,106.7 432.745,103.867 421.5,107C 413.903,112.202 405.569,114.536 396.5,114C 384.396,103.895 371.729,94.5615 358.5,86C 342.779,77.3062 326.446,69.9729 309.5,64C 306.567,61.7357 304.4,58.9024 303,55.5C 301,38.8384 299.167,22.1717 297.5,5.5 Z"
    />
  </g>
  <g>
    <path
      style="opacity: 0.981"
      fill="#5c5648"
      d="M 343.5,156.5 C 377.633,199.321 384.467,246.321 364,297.5C 359.315,306.881 354.149,315.881 348.5,324.5C 342.917,321.848 340.25,317.348 340.5,311C 340.523,308.075 341.023,305.241 342,302.5C 362.52,258.789 356.353,219.289 323.5,184C 286.818,153.149 247.151,148.815 204.5,171C 161.457,201.463 147.957,241.963 164,292.5C 185.229,336.687 220.396,356.854 269.5,353C 281.171,351.332 292.171,347.665 302.5,342C 308.645,339.815 314.645,340.148 320.5,343C 322.464,344.451 323.797,346.284 324.5,348.5C 284.701,376.203 241.701,382.37 195.5,367C 181.304,360.933 168.304,353.1 156.5,343.5C 128.606,311.283 118.106,273.95 125,231.5C 134.066,187.108 158.899,154.941 199.5,135C 243.156,116.761 285.489,119.428 326.5,143C 332.6,147.038 338.267,151.538 343.5,156.5 Z"
    />
  </g>
  <g>
    <path
      style="opacity: 0.966"
      fill="#e09235"
      d="M 343.5,156.5 C 380.629,191.392 394.463,234.059 385,284.5C 382.385,296.014 378.385,307.014 373,317.5C 366.858,327.497 358.691,329.831 348.5,324.5C 354.149,315.881 359.315,306.881 364,297.5C 384.467,246.321 377.633,199.321 343.5,156.5 Z"
    />
  </g>
  <g>
    <path
      style="opacity: 0.964"
      fill="#e09235"
      d="M 156.5,343.5 C 168.304,353.1 181.304,360.933 195.5,367C 241.701,382.37 284.701,376.203 324.5,348.5C 329.831,358.691 327.497,366.858 317.5,373C 278.623,392.222 239.29,393.222 199.5,376C 182.946,368.062 168.613,357.228 156.5,343.5 Z"
    />
  </g>
</svg>
